<svg xmlns="http://www.w3.org/2000/svg" viewBox="0 0 24 24" role="img" aria-label="OpenAI">
  <path fill="#10A37F" d="M22.282 9.821a5.985 5.985 0 0 0-.516-4.938 6.046 6.046 0 0 0-6.51-2.9A5.985 5.985 0 0 0 4.981 4.18a6.046 6.046 0 0 0-3.997 2.9 5.985 5.985 0 0 0 .743 7.097 5.98 5.98 0 0 0 .511 4.936 6.051 6.051 0 0 0 6.515 2.899 5.985 5.985 0 0 0 4.983-1.264 6.055 6.055 0 0 0 3.997-2.9 5.99 5.99 0 0 0-.25-6.029zM12.04 18.52a4.476 4.476 0 0 1-2.876-1.04l.141-.081 4.779-2.758a.795.795 0 0 0 .392-.681v-6.737l2.02 1.168a.071.071 0 0 1 .038.052v5.583a4.504 4.504 0 0 1-4.494 4.494zM5.962 15.945a4.471 4.471 0 0 1-.535-3.014l.142.085 4.783 2.759a.771.771 0 0 0 .78 0l5.843-3.369v2.332a.08.08 0 0 1-.033.062L9.74 17.95a4.5 4.5 0 0 1-3.777-1.005zM4.352 8.936a4.485 4.485 0 0 1 2.365-1.972V11.6a.766.766 0 0 0 .388.676l5.815 3.355-2.02 1.168a.076.076 0 0 1-.071 0l-4.83-2.786A4.504 4.504 0 0 1 4.352 8.936zm16.099 3.855-5.833-3.387L16.618 8.24a.076.076 0 0 1 .071 0l4.83 2.791a4.494 4.494 0 0 1-.676 8.105v-5.678a.79.79 0 0 0-.392-.667zm2.01-3.023-.141-.085-4.774-2.782a.776.776 0 0 0-.785 0L10.88 9.978v-2.332a.066.066 0 0 1 .027-.061l4.826-2.787a4.5 4.5 0 0 1 6.68 4.66zm-12.64 4.135-2.02-1.164a.08.08 0 0 1-.038-.057V6.075a4.5 4.5 0 0 1 7.375-3.453l-.142.08-4.778 2.758a.795.795 0 0 0-.393.681l-.004 6.842z"/>
</svg>
