<svg width="164" height="314" viewBox="0 0 164 314" xmlns="http://www.w3.org/2000/svg">
  <rect width="164" height="314" fill="#14161b"/>
  <rect x="0" y="0" width="4" height="314" fill="#ffd24d"/>

  <g transform="translate(52,40)">
    <rect x="0" y="0" width="60" height="60" rx="16" fill="#ffd24d"/>
    <g fill="#14161b">
      <rect x="16" y="22" width="5" height="16" rx="2.5"/>
      <rect x="25" y="16" width="5" height="28" rx="2.5"/>
      <rect x="34" y="11" width="5" height="38" rx="2.5"/>
      <rect x="43" y="20" width="5" height="20" rx="2.5"/>
    </g>
  </g>

  <text x="82" y="132" text-anchor="middle" font-family="Segoe UI, Arial, sans-serif" font-size="21" font-weight="600" fill="#f2f4f8">Respondent</text>
  <text x="82" y="154" text-anchor="middle" font-family="Microsoft YaHei, Segoe UI, sans-serif" font-size="13" fill="#ffd86d">会议助手</text>

  <g transform="translate(54,196)" fill="#ffd24d">
    <rect x="0" y="10" width="4" height="10" rx="2"/>
    <rect x="9" y="4" width="4" height="22" rx="2"/>
    <rect x="18" y="0" width="4" height="30" rx="2"/>
    <rect x="27" y="6" width="4" height="18" rx="2"/>
    <rect x="36" y="11" width="4" height="8" rx="2"/>
    <rect x="45" y="3" width="4" height="24" rx="2"/>
    <rect x="54" y="9" width="4" height="12" rx="2"/>
  </g>

  <text x="82" y="290" text-anchor="middle" font-family="Microsoft YaHei, Segoe UI, sans-serif" font-size="11" fill="#8b93a1">听得清 · 答得快</text>
</svg>
